{
    "asset" : {
        "generator" : "Khronos glTF Blender I/O v1.8.19",
        "version" : "2.0"
    },
    "scene" : 0,
    "scenes" : [
        {
            "name" : "Scene",
            "nodes" : [
                0,
                1
            ]
        }
    ],
    "nodes" : [
        {
            "mesh" : 0,
            "name" : "Text",
            "rotation" : [
                0.7071068286895752,
                0,
                0,
                0.7071068286895752
            ],
            "scale" : [
                0.5593713521957397,
                0.5593713521957397,
                0.5593713521957397
            ],
            "translation" : [
                -1.4959293603897095,
                0.19513772428035736,
                0.20659230649471283
            ]
        },
        {
            "mesh" : 1,
            "name" : "Text.001",
            "rotation" : [
                0.7071068286895752,
                0,
                0,
                0.7071068286895752
            ],
            "scale" : [
                0.5593713521957397,
                0.5593713521957397,
                0.5593713521957397
            ],
            "translation" : [
                -1.4701586961746216,
                -0.19513772428035736,
                0.20659227669239044
            ]
        }
    ],
    "materials" : [
        {
            "doubleSided" : true,
            "name" : "Material.001",
            "pbrMetallicRoughness" : {
                "baseColorFactor" : [
                    0.800000011920929,
                    0.800000011920929,
                    0.800000011920929,
                    1
                ],
                "metallicFactor" : 0,
                "roughnessFactor" : 0.022727280855178833
            }
        }
    ],
    "meshes" : [
        {
            "name" : "Text",
            "primitives" : [
                {
                    "attributes" : {
                        "POSITION" : 0,
                        "NORMAL" : 1,
                        "TEXCOORD_0" : 2
                    },
                    "indices" : 3,
                    "material" : 0
                }
            ]
        },
        {
            "name" : "Text.001",
            "primitives" : [
                {
                    "attributes" : {
                        "POSITION" : 4,
                        "NORMAL" : 5,
                        "TEXCOORD_0" : 6
                    },
                    "indices" : 7
                }
            ]
        }
    ],
    "accessors" : [
        {
            "bufferView" : 0,
            "componentType" : 5126,
            "count" : 7516,
            "max" : [
                3.9736526012420654,
                0.5199999809265137,
                0.07640638947486877
            ],
            "min" : [
                0.07354496419429779,
                -0.5199999809265137,
                -2.0518558025360107
            ],
            "type" : "VEC3"
        },
        {
            "bufferView" : 1,
            "componentType" : 5126,
            "count" : 7516,
            "type" : "VEC3"
        },
        {
            "bufferView" : 2,
            "componentType" : 5126,
            "count" : 7516,
            "type" : "VEC2"
        },
        {
            "bufferView" : 3,
            "componentType" : 5123,
            "count" : 31956,
            "type" : "SCALAR"
        },
        {
            "bufferView" : 4,
            "componentType" : 5126,
            "count" : 9704,
            "max" : [
                6.859063148498535,
                0.7200000286102295,
                0.01588594727218151
            ],
            "min" : [
                0.0627291202545166,
                -0.7200000286102295,
                -0.6240325570106506
            ],
            "type" : "VEC3"
        },
        {
            "bufferView" : 5,
            "componentType" : 5126,
            "count" : 9704,
            "type" : "VEC3"
        },
        {
            "bufferView" : 6,
            "componentType" : 5126,
            "count" : 9704,
            "type" : "VEC2"
        },
        {
            "bufferView" : 7,
            "componentType" : 5123,
            "count" : 17832,
            "type" : "SCALAR"
        }
    ],
    "bufferViews" : [
        {
            "buffer" : 0,
            "byteLength" : 90192,
            "byteOffset" : 0
        },
        {
            "buffer" : 0,
            "byteLength" : 90192,
            "byteOffset" : 90192
        },
        {
            "buffer" : 0,
            "byteLength" : 60128,
            "byteOffset" : 180384
        },
        {
            "buffer" : 0,
            "byteLength" : 63912,
            "byteOffset" : 240512
        },
        {
            "buffer" : 0,
            "byteLength" : 116448,
            "byteOffset" : 304424
        },
        {
            "buffer" : 0,
            "byteLength" : 116448,
            "byteOffset" : 420872
        },
        {
            "buffer" : 0,
            "byteLength" : 77632,
            "byteOffset" : 537320
        },
        {
            "buffer" : 0,
            "byteLength" : 35664,
            "byteOffset" : 614952
        }
    ],
    "buffers" : [
        {
            "byteLength" : 650616,
            "uri" : "data:application/octet-stream;base64,"
        }
    ]
}
